<mxfile host="app.diagrams.net" modified="2022-06-14T01:31:17.539Z" agent="5.0 (Windows NT 10.0; Win64; x64) AppleWebKit/537.36 (KHTML, like Gecko) Chrome/102.0.5005.115 Safari/537.36" etag="KIoFX71Ycoe5US1q3Pmq" version="20.0.0" type="github">
  <diagram id="YH4F1Agrm4qT_gykeGqx" name="Page-1">
    <mxGraphModel dx="1865" dy="579" grid="1" gridSize="10" guides="1" tooltips="1" connect="1" arrows="1" fold="1" page="1" pageScale="1" pageWidth="827" pageHeight="1169" math="0" shadow="0">
      <root>
        <mxCell id="0" />
        <mxCell id="1" parent="0" />
        <mxCell id="P0_ZTkMcPH8MhCZKsVqU-7" value="&lt;br&gt;&lt;br&gt;&lt;br&gt;&lt;br&gt;&lt;br&gt;&lt;br&gt;&lt;font style=&quot;font-size: 18px;&quot;&gt;本校数据中心&lt;/font&gt;" style="rounded=1;whiteSpace=wrap;html=1;fillColor=#d5e8d4;strokeColor=#82b366;" vertex="1" parent="1">
          <mxGeometry x="210" y="160" width="170" height="230" as="geometry" />
        </mxCell>
        <mxCell id="P0_ZTkMcPH8MhCZKsVqU-4" value="" style="shape=flexArrow;endArrow=classic;html=1;rounded=0;" edge="1" parent="1">
          <mxGeometry width="50" height="50" relative="1" as="geometry">
            <mxPoint x="390" y="259.5" as="sourcePoint" />
            <mxPoint x="570" y="260" as="targetPoint" />
          </mxGeometry>
        </mxCell>
        <mxCell id="P0_ZTkMcPH8MhCZKsVqU-5" value="23个表" style="shape=note;whiteSpace=wrap;html=1;backgroundOutline=1;darkOpacity=0.05;size=18;" vertex="1" parent="1">
          <mxGeometry x="265" y="200" width="60" height="90" as="geometry" />
        </mxCell>
        <mxCell id="P0_ZTkMcPH8MhCZKsVqU-8" value="教育部&lt;br&gt;数据中心" style="rounded=1;whiteSpace=wrap;html=1;fontSize=18;fillColor=#dae8fc;strokeColor=#6c8ebf;" vertex="1" parent="1">
          <mxGeometry x="580" y="160" width="170" height="230" as="geometry" />
        </mxCell>
        <mxCell id="P0_ZTkMcPH8MhCZKsVqU-9" value="全国职业教育智慧大脑院校中台【高职】" style="text;html=1;strokeColor=none;fillColor=none;align=center;verticalAlign=middle;whiteSpace=wrap;rounded=0;fontSize=23;" vertex="1" parent="1">
          <mxGeometry x="160" y="20" width="450" height="60" as="geometry" />
        </mxCell>
        <mxCell id="P0_ZTkMcPH8MhCZKsVqU-10" value="" style="shape=image;html=1;verticalAlign=top;verticalLabelPosition=bottom;labelBackgroundColor=#ffffff;imageAspect=0;aspect=fixed;image=https://cdn1.iconfinder.com/data/icons/ui-essential-17/32/UI_Essential_Outline_1_essential-app-ui-question-help-128.png;fontSize=23;" vertex="1" parent="1">
          <mxGeometry x="-20" y="230" width="80" height="80" as="geometry" />
        </mxCell>
      </root>
    </mxGraphModel>
  </diagram>
</mxfile>
